<svg width="31" height="31" viewBox="0 0 31 31" fill="none" xmlns="http://www.w3.org/2000/svg">
<path d="M11.625 20.8862L7.1429 16.4041C6.90139 16.1626 6.57383 16.0269 6.23228 16.0269C5.89073 16.0269 5.56316 16.1626 5.32165 16.4041C5.08014 16.6456 4.94446 16.9732 4.94446 17.3147C4.94446 17.4839 4.97777 17.6513 5.04249 17.8076C5.10721 17.9638 5.20207 18.1058 5.32165 18.2254L10.7208 23.6245C11.2246 24.1283 12.0383 24.1283 12.5421 23.6245L26.2079 9.9587C26.4494 9.71718 26.5851 9.38962 26.5851 9.04807C26.5851 8.70652 26.4494 8.37896 26.2079 8.13745C25.9664 7.89593 25.6388 7.76025 25.2973 7.76025C24.9557 7.76025 24.6282 7.89593 24.3867 8.13745L11.625 20.8862Z" fill="#525252"/>
</svg>
