<svg width="102" height="102" viewBox="0 0 102 102" fill="none" xmlns="http://www.w3.org/2000/svg">
<circle cx="51" cy="51" r="51" fill="white" fill-opacity="0.3"/>
<path d="M68.8246 46.5283C70.7857 46.2268 72.5606 45.1959 73.7941 43.6419C75.0277 42.0879 75.629 40.1254 75.4777 38.1471C75.3264 36.1688 74.4337 34.3205 72.9781 32.9722C71.5226 31.6238 69.6116 30.8748 67.6275 30.875H65V27.375C64.9992 26.6791 64.7224 26.0118 64.2303 25.5197C63.7382 25.0276 63.0709 24.7508 62.375 24.75H30.875C30.1791 24.7508 29.5118 25.0276 29.0197 25.5197C28.5276 26.0118 28.2508 26.6791 28.25 27.375V38.75C28.2508 39.4459 28.5276 40.1132 29.0197 40.6053C29.5118 41.0974 30.1791 41.3742 30.875 41.375H62.375C63.0709 41.3742 63.7382 41.0974 64.2303 40.6053C64.7224 40.1132 64.9992 39.4459 65 38.75V34.375H67.6275C68.7294 34.375 69.7907 34.7911 70.5991 35.54C71.4074 36.2889 71.9032 37.3154 71.9872 38.4141C72.0712 39.5128 71.7373 40.6027 71.0522 41.4658C70.3672 42.3289 69.3815 42.9015 68.2924 43.0691L49.25 45.9986V53.625H43.125V77.25H58.875V53.625H52.75V49.0014L68.8246 46.5283ZM61.5 37.875H31.75V28.25H61.5V37.875ZM55.375 57.125V73.75H46.625V57.125H55.375Z" fill="white"/>
</svg>
