<svg width="102" height="102" viewBox="0 0 102 102" fill="none" xmlns="http://www.w3.org/2000/svg">
<circle cx="51" cy="51" r="51" fill="white" fill-opacity="0.3"/>
<g clip-path="url(#clip0_43_7)">
<path fill-rule="evenodd" clip-rule="evenodd" d="M27 32.3333C27 30.9188 27.5619 29.5623 28.5621 28.5621C29.5623 27.5619 30.9188 27 32.3333 27H69.6667C71.0812 27 72.4377 27.5619 73.4379 28.5621C74.4381 29.5623 75 30.9188 75 32.3333V69.6667C75 71.0812 74.4381 72.4377 73.4379 73.4379C72.4377 74.4381 71.0812 75 69.6667 75H32.3333C30.9188 75 29.5623 74.4381 28.5621 73.4379C27.5619 72.4377 27 71.0812 27 69.6667V32.3333ZM69.6667 32.3333H32.3333V40.3333H69.6667V32.3333ZM32.3333 69.6667V45.6667H43V69.6667H32.3333ZM48.3333 69.6667H69.6667V45.6667H48.3333V69.6667Z" fill="white"/>
</g>
<defs>
<clipPath id="clip0_43_7">
<rect width="64" height="64" fill="white" transform="translate(19 19)"/>
</clipPath>
</defs>
</svg>
