<svg width="64" height="64" viewBox="0 0 64 64" fill="none" xmlns="http://www.w3.org/2000/svg">
<path d="M10.6666 55.3334C9.19998 55.3334 7.94487 54.8116 6.90131 53.768C5.85776 52.7245 5.33509 51.4685 5.33331 50V18C5.33331 16.5334 5.85598 15.2782 6.90131 14.2347C7.94665 13.1911 9.20176 12.6685 10.6666 12.6667H53.3333C54.8 12.6667 56.056 13.1894 57.1013 14.2347C58.1466 15.28 58.6684 16.5351 58.6666 18V50C58.6666 51.4667 58.1449 52.7227 57.1013 53.768C56.0578 54.8134 54.8018 55.3351 53.3333 55.3334H10.6666ZM32 36.6667L10.6666 23.3334V50H53.3333V23.3334L32 36.6667ZM32 31.3334L53.3333 18H10.6666L32 31.3334ZM10.6666 23.3334V18V50V23.3334Z" fill="#525252"/>
</svg>
