<svg width="64" height="64" viewBox="0 0 64 64" fill="none" xmlns="http://www.w3.org/2000/svg">
<path d="M51.9008 8.2176C53.9904 9.856 55.4304 12.5024 56.0192 15.2736C56.0905 15.2962 56.16 15.324 56.2272 15.3568L62.7712 18.384C63.137 18.552 63.4471 18.8211 63.6648 19.1596C63.8825 19.4981 63.9989 19.8919 64 20.2944V59.8688C63.9977 60.1975 63.9192 60.5213 63.7707 60.8146C63.6223 61.1079 63.4079 61.3628 63.1444 61.5594C62.8808 61.7559 62.5754 61.8888 62.2519 61.9474C61.9284 62.0061 61.5958 61.9891 61.28 61.8976L43.1392 56.7776L21.5712 62.7232C21.1821 62.8301 20.7707 62.8257 20.384 62.7104L1.5168 57.0944C1.08071 56.9663 0.697567 56.701 0.424305 56.3378C0.151043 55.9746 0.00223891 55.5329 0 55.0784L0 14.7936C0 13.3856 1.3696 12.3744 2.736 12.7712L20.9824 18.0864L30.256 15.248C30.3836 15.2103 30.5142 15.1836 30.6464 15.168C31.0048 13.0688 32.0064 11.0528 33.6864 9.088C35.68 6.752 39.1776 5.3824 42.5856 5.2192C46.1216 5.0496 48.8224 5.8048 51.8976 8.2144L51.9008 8.2176ZM4.2656 17.6192V53.5072L19.8496 58.144V22.1536L4.2656 17.6192ZM30.5344 19.584L24.1152 21.5456V57.6384L40.3232 53.1776V42.6336C40.3232 41.4688 41.28 40.5248 42.4576 40.5248C43.6352 40.5248 44.5888 41.4688 44.5888 42.6368V52.8032L59.7344 57.0752V21.6352L56.1504 19.9712C56.0896 20.3232 56.0128 20.6688 55.9168 21.0048C55.2209 23.4584 54.0536 25.7529 52.48 27.76L44.5536 37.6576C44.3449 37.9178 44.0784 38.1258 43.7752 38.2649C43.472 38.404 43.1405 38.4705 42.8071 38.459C42.4737 38.4475 42.1476 38.3584 41.8547 38.1987C41.5619 38.039 41.3103 37.8132 41.12 37.5392L33.712 26.8096C32.4896 25.1008 31.632 23.5776 31.1488 22.2144C30.8455 21.3636 30.6394 20.4812 30.5344 19.584ZM42.7904 9.4368C40.4672 9.5488 38.08 10.4832 36.944 11.8112C35.5776 13.4112 34.9056 14.9088 34.7712 16.4256C34.6112 18.2528 34.72 19.5424 35.1744 20.8192C35.5104 21.7632 36.1792 22.96 37.2128 24.4032L43.008 32.7936L49.12 25.1616C50.3531 23.5858 51.2672 21.7847 51.8112 19.8592C52.5792 17.1712 51.4208 13.2224 49.2512 11.5264C47.0272 9.7824 45.3472 9.312 42.7936 9.4368H42.7904ZM43.232 11.6672C46.7648 11.6672 49.632 14.4992 49.632 17.9936C49.6274 18.8293 49.4582 19.6559 49.134 20.4262C48.8098 21.1964 48.3371 21.8953 47.7427 22.4828C47.1484 23.0703 46.4441 23.5349 45.6702 23.8502C44.8962 24.1654 44.0677 24.3251 43.232 24.32C39.6992 24.32 36.832 21.488 36.832 17.9936C36.832 14.4992 39.6992 11.6672 43.232 11.6672ZM43.232 15.8848C42.9534 15.8831 42.6772 15.9363 42.4191 16.0414C42.1611 16.1465 41.9262 16.3013 41.728 16.4971C41.5298 16.693 41.3722 16.9259 41.264 17.1827C41.1558 17.4394 41.0993 17.715 41.0976 17.9936C41.0976 19.1584 42.0544 20.1024 43.232 20.1024C43.5106 20.1037 43.7867 20.05 44.0446 19.9446C44.3025 19.8391 44.5371 19.6839 44.735 19.4878C44.9329 19.2917 45.0903 19.0585 45.198 18.8016C45.3058 18.5447 45.3619 18.269 45.3632 17.9904C45.359 17.4288 45.1323 16.8918 44.7328 16.4971C44.3333 16.1025 43.7936 15.8822 43.232 15.8848Z" fill="#525252"/>
</svg>
