<svg width="64" height="64" viewBox="0 0 64 64" fill="none" xmlns="http://www.w3.org/2000/svg">
<path d="M18.6666 23.3333C17.3333 23.3333 14.6666 24.1333 14.6666 27.3333C14.6666 30.5333 17.3333 31.3333 18.6666 31.3333M5.33331 47.3333V55.3333C5.33331 56.7478 5.89522 58.1044 6.89541 59.1045C7.8956 60.1047 9.25216 60.6666 10.6666 60.6666H40M5.33331 47.3333V18C5.33331 16.5855 5.89522 15.2289 6.89541 14.2287C7.8956 13.2285 9.25216 12.6666 10.6666 12.6666H18.6666M5.33331 47.3333C9.07465 46.7093 15.032 46.552 21.1866 47.9813M40 60.6666H48C49.4145 60.6666 50.771 60.1047 51.7712 59.1045C52.7714 58.1044 53.3333 56.7478 53.3333 55.3333V39.3333M40 60.6666C35.456 53.2853 28.1946 49.6053 21.1866 47.9813M21.1866 47.9813C24.1066 44.6 28.4666 41.448 34.776 39.3333M26.6666 28.6666V15.3333C26.6666 14.6261 26.9476 13.9478 27.4477 13.4477C27.9478 12.9476 28.6261 12.6666 29.3333 12.6666H32L37.3333 7.33331H48L53.3333 12.6666H56C56.7072 12.6666 57.3855 12.9476 57.8856 13.4477C58.3857 13.9478 58.6666 14.6261 58.6666 15.3333V28.6666C58.6666 29.3739 58.3857 30.0522 57.8856 30.5523C57.3855 31.0524 56.7072 31.3333 56 31.3333H29.3333C28.6261 31.3333 27.9478 31.0524 27.4477 30.5523C26.9476 30.0522 26.6666 29.3739 26.6666 28.6666Z" stroke="#525252" stroke-width="5.33333" stroke-linecap="round" stroke-linejoin="round"/>
<path d="M42.6667 23.3333C44.1394 23.3333 45.3333 22.1394 45.3333 20.6667C45.3333 19.1939 44.1394 18 42.6667 18C41.1939 18 40 19.1939 40 20.6667C40 22.1394 41.1939 23.3333 42.6667 23.3333Z" stroke="#525252" stroke-width="5.33333" stroke-linecap="round" stroke-linejoin="round"/>
</svg>
