<svg width="18" height="18" viewBox="0 0 18 18" fill="none" xmlns="http://www.w3.org/2000/svg">
<g clip-path="url(#clip0_7_22)">
<path d="M15.75 15.75L12.4928 12.4928M12.4928 12.4928C13.0499 11.9356 13.4919 11.2741 13.7934 10.5462C14.095 9.81819 14.2502 9.03795 14.2502 8.25C14.2502 7.46205 14.095 6.68181 13.7934 5.95384C13.4919 5.22587 13.0499 4.56442 12.4928 4.00725C11.9356 3.45009 11.2741 3.00812 10.5462 2.70658C9.81819 2.40505 9.03795 2.24985 8.25 2.24985C7.46205 2.24985 6.68181 2.40505 5.95384 2.70658C5.22587 3.00812 4.56442 3.45009 4.00725 4.00725C2.882 5.1325 2.24985 6.65866 2.24985 8.25C2.24985 9.84134 2.882 11.3675 4.00725 12.4928C5.1325 13.618 6.65866 14.2502 8.25 14.2502C9.84134 14.2502 11.3675 13.618 12.4928 12.4928Z" stroke="#525252" stroke-width="2" stroke-linecap="round" stroke-linejoin="round"/>
</g>
<defs>
<clipPath id="clip0_7_22">
<rect width="18" height="18" fill="white"/>
</clipPath>
</defs>
</svg>
